<?xml version="1.0" encoding="utf-8"?>
<!-- Generator: Adobe Illustrator 18.0.0, SVG Export Plug-In . SVG Version: 6.00 Build 0)  -->
<!DOCTYPE svg PUBLIC "-//W3C//DTD SVG 1.1//EN" "http://www.w3.org/Graphics/SVG/1.1/DTD/svg11.dtd">
<svg version="1.1" id="Layer_1" xmlns="http://www.w3.org/2000/svg" xmlns:xlink="http://www.w3.org/1999/xlink" x="0px" y="0px"
	 viewBox="0 0 60 60" enable-background="new 0 0 60 60" xml:space="preserve">
<g>
	<g>
		<path d="M52,55.3c0.2,0.2,0.3,0.5,0.3,0.7c0,0.3-0.1,0.5-0.3,0.7c-0.2,0.2-0.5,0.3-0.7,0.3c-0.3,0-0.5-0.1-0.7-0.3
			c-0.2-0.2-0.3-0.5-0.3-0.7c0-0.3,0.1-0.5,0.3-0.7c0.2-0.2,0.5-0.3,0.7-0.3C51.6,55,51.8,55.1,52,55.3z M52.1,55.2
			c-0.2-0.2-0.5-0.4-0.9-0.4c-0.3,0-0.6,0.1-0.9,0.4c-0.2,0.2-0.4,0.5-0.4,0.9c0,0.3,0.1,0.6,0.3,0.9c0.2,0.2,0.5,0.4,0.9,0.4
			c0.3,0,0.6-0.1,0.9-0.4c0.2-0.2,0.4-0.5,0.4-0.9C52.5,55.7,52.4,55.4,52.1,55.2z M51.5,56c-0.1,0-0.1,0-0.2,0H51v-0.5h0.2
			c0.1,0,0.2,0,0.3,0c0.1,0,0.1,0.1,0.1,0.2C51.6,55.9,51.5,56,51.5,56z M50.8,56.7H51v-0.5h0.2c0.1,0,0.2,0,0.3,0
			c0.1,0,0.1,0.2,0.1,0.3v0.1l0,0c0,0,0,0,0,0c0,0,0,0,0,0h0.2l0,0c0,0,0,0,0-0.1c0,0,0-0.1,0-0.1v-0.1c0-0.1,0-0.1-0.1-0.2
			c-0.1-0.1-0.1-0.1-0.2-0.1c0.1,0,0.1,0,0.2-0.1c0.1-0.1,0.1-0.1,0.1-0.3c0-0.2-0.1-0.3-0.2-0.3c-0.1,0-0.2-0.1-0.4-0.1h-0.5V56.7z
			"/>
		<g>
			<path stroke="#000000" stroke-width="8" d="M29.9,29.9"/>
		</g>
		<g>
			<path fill="#FFFFFF" d="M29.9,59.4c16.3,0,29.5-13.2,29.5-29.5c0-16.3-13.2-29.5-29.5-29.5S0.4,13.6,0.4,29.9
				C0.4,46.2,13.6,59.4,29.9,59.4z"/>
			<path fill="#FFFFFF" d="M29.9,29.9"/>
		</g>
		<g>
			<path d="M49.3,10.4c-5.2-5.2-12.1-8.1-19.5-8.1C14.7,2.4,2.4,14.7,2.4,29.9c0,7.4,2.9,14.3,8.1,19.5c5.2,5.2,12.1,8.1,19.5,8.1
				c7.4,0,14.3-2.9,19.5-8.1c5.2-5.2,8.1-12.1,8.1-19.5C57.4,22.5,54.5,15.6,49.3,10.4z M28.1,41.6c0,2.5-5.6,9-5.6,9
				s2.2,3.9,3.1,3.9C13.1,52.9,4.7,40.8,4.7,29.9c0-12.1,9.8-23.5,22.1-24.8c-1.5,1.1-8,7.1-8,9.4c0.7,0,9.9,12.9,9.9,18.7
				c-1.8,0.6-3.4,2.3-3.4,4.3C25.4,39.1,26.9,40.7,28.1,41.6z M34.2,54.5c0.9,0,3.1-3.9,3.1-3.9s-5.6-6.5-5.6-9
				c1.2-0.8,2.7-2.4,2.7-4c0-2-1.5-3.7-3.3-4.3c0-5.8,9.2-18.7,9.9-18.7c0-2.3-6.4-8.3-8-9.4C45.3,6.4,55,17.8,55,29.9
				C55,40.8,46.6,52.9,34.2,54.5z"/>
			<path d="M8.7,30.7l-0.3-3.4l-1.3,2.2c0,0,0.7,6.8,2.3,8.5c2.2,1.8,13.1,2.7,13.1,2.7s-3-0.9-5.6-2.2C14.3,37.2,8.7,30.7,8.7,30.7
				z"/>
			<path d="M51.3,27.3L51,30.7c0,0-5.5,6.5-8.2,7.8c-2.7,1.3-5.6,2.2-5.6,2.2s10.9-0.9,13.1-2.7c1.6-1.7,2.3-8.5,2.3-8.5L51.3,27.3z
				"/>
		</g>
	</g>
</g>
</svg>
